HIERARCHY
ROOT Hips
{
	OFFSET 0.000000 100.481300 0.000000
	CHANNELS 6 Xposition Yposition Zposition Xrotation Yrotation Zrotation
	JOINT Spine
	{
		OFFSET -0.279200 12.230698 -2.892100
		CHANNELS 3 Xrotation Yrotation Zrotation
		JOINT Spine1
		{
			OFFSET -0.325700 14.269203 -3.374200
			CHANNELS 3 Xrotation Yrotation Zrotation
			JOINT Spine2
			{
				OFFSET -0.372300 16.307602 -0.352600
				CHANNELS 3 Xrotation Yrotation Zrotation
				JOINT Neck
				{
					OFFSET -0.418800 17.814194 8.416900
					CHANNELS 3 Xrotation Yrotation Zrotation
					JOINT Head
					{
						OFFSET 0.000000 7.031097 3.806800
						CHANNELS 3 Xrotation Yrotation Zrotation
						JOINT HeadTop_End
						{
							OFFSET 0.000000 24.646606 12.978600
							CHANNELS 3 Xrotation Yrotation Zrotation
							End Site
							{
								OFFSET 0.000000 27.854965 0.000000
							}
						}
					}
				}
				JOINT LeftShoulder
				{
					OFFSET 16.952999 14.495407 -7.737500
					CHANNELS 3 Xrotation Yrotation Zrotation
					JOINT LeftArm
					{
						OFFSET 9.308998 -2.777710 0.208600
						CHANNELS 3 Xrotation Yrotation Zrotation
						JOINT LeftForeArm
						{
							OFFSET 29.972298 0.000000 0.000000
							CHANNELS 3 Xrotation Yrotation Zrotation
							JOINT LeftHand
							{
								OFFSET 26.026505 0.000000 0.000000
								CHANNELS 3 Xrotation Yrotation Zrotation
								JOINT LeftHandThumb1
								{
									OFFSET 12.240501 -7.147949 9.207150
									CHANNELS 3 Xrotation Yrotation Zrotation
									JOINT LeftHandThumb2
									{
										OFFSET 4.138618 -2.389435 2.389433
										CHANNELS 3 Xrotation Yrotation Zrotation
										JOINT LeftHandThumb3
										{
											OFFSET 2.726913 -1.574387 1.574386
											CHANNELS 3 Xrotation Yrotation Zrotation
											JOINT LeftHandThumb4
											{
												OFFSET 3.941010 -2.275345 2.275342
												CHANNELS 3 Xrotation Yrotation Zrotation
												End Site
												{
													OFFSET -0.005798 5.087799 0.009903
												}
											}
										}
									}
								}
								JOINT LeftHandIndex1
								{
									OFFSET 24.424698 -1.985611 5.953459
									CHANNELS 3 Xrotation Yrotation Zrotation
									JOINT LeftHandIndex2
									{
										OFFSET 6.426697 0.000000 0.000000
										CHANNELS 3 Xrotation Yrotation Zrotation
										JOINT LeftHandIndex3
										{
											OFFSET 5.337898 0.000000 0.000000
											CHANNELS 3 Xrotation Yrotation Zrotation
											JOINT LeftHandIndex4
											{
												OFFSET 4.409401 0.000000 0.000000
												CHANNELS 3 Xrotation Yrotation Zrotation
												End Site
												{
													OFFSET 0.000000 4.409363 0.014373
												}
											}
										}
									}
								}
								JOINT LeftHandMiddle1
								{
									OFFSET 23.810104 0.000000 0.000000
									CHANNELS 3 Xrotation Yrotation Zrotation
									JOINT LeftHandMiddle2
									{
										OFFSET 7.176498 0.000000 0.000000
										CHANNELS 3 Xrotation Yrotation Zrotation
										JOINT LeftHandMiddle3
										{
											OFFSET 6.774902 0.000000 0.000000
											CHANNELS 3 Xrotation Yrotation Zrotation
											JOINT LeftHandMiddle4
											{
												OFFSET 5.403328 0.000000 0.000000
												CHANNELS 3 Xrotation Yrotation Zrotation
												End Site
												{
													OFFSET -0.027702 5.403244 0.017414
												}
											}
										}
									}
								}
								JOINT LeftHandRing1
								{
									OFFSET 22.908401 -0.839279 -6.020567
									CHANNELS 3 Xrotation Yrotation Zrotation
									JOINT LeftHandRing2
									{
										OFFSET 6.337502 0.000000 0.000000
										CHANNELS 3 Xrotation Yrotation Zrotation
										JOINT LeftHandRing3
										{
											OFFSET 5.779297 0.000000 0.000000
											CHANNELS 3 Xrotation Yrotation Zrotation
											JOINT LeftHandRing4
											{
												OFFSET 4.965698 0.000000 0.000000
												CHANNELS 3 Xrotation Yrotation Zrotation
												End Site
												{
													OFFSET 0.000000 4.965668 0.016186
												}
											}
										}
									}
								}
								JOINT LeftHandPinky1
								{
									OFFSET 20.037003 -1.530319 -10.950146
									CHANNELS 3 Xrotation Yrotation Zrotation
									JOINT LeftHandPinky2
									{
										OFFSET 5.254700 0.000000 0.000000
										CHANNELS 3 Xrotation Yrotation Zrotation
										JOINT LeftHandPinky3
										{
											OFFSET 4.810204 0.000000 0.000000
											CHANNELS 3 Xrotation Yrotation Zrotation
											JOINT LeftHandPinky4
											{
												OFFSET 3.647202 0.000000 0.000000
												CHANNELS 3 Xrotation Yrotation Zrotation
												End Site
												{
													OFFSET 0.000000 3.647186 0.011889
												}
											}
										}
									}
								}
							}
						}
					}
				}
				JOINT RightShoulder
				{
					OFFSET -15.141001 14.495407 -7.737500
					CHANNELS 3 Xrotation Yrotation Zrotation
					JOINT RightArm
					{
						OFFSET -9.308998 -2.777710 0.208500
						CHANNELS 3 Xrotation Yrotation Zrotation
						JOINT RightForeArm
						{
							OFFSET -29.972300 0.000000 0.000000
							CHANNELS 3 Xrotation Yrotation Zrotation
							JOINT RightHand
							{
								OFFSET -26.026505 0.000000 0.000000
								CHANNELS 3 Xrotation Yrotation Zrotation
								JOINT RightHandThumb1
								{
									OFFSET -12.240601 -7.148026 9.207092
									CHANNELS 3 Xrotation Yrotation Zrotation
									JOINT RightHandThumb2
									{
										OFFSET -4.138618 -2.389435 2.389433
										CHANNELS 3 Xrotation Yrotation Zrotation
										JOINT RightHandThumb3
										{
											OFFSET -2.726974 -1.574417 1.574421
											CHANNELS 3 Xrotation Yrotation Zrotation
											JOINT RightHandThumb4
											{
												OFFSET -3.941010 -2.275345 2.275343
												CHANNELS 3 Xrotation Yrotation Zrotation
												End Site
												{
													OFFSET 0.005814 5.087799 0.009927
												}
											}
										}
									}
								}
								JOINT RightHandIndex1
								{
									OFFSET -24.424698 -1.985657 5.953444
									CHANNELS 3 Xrotation Yrotation Zrotation
									JOINT RightHandIndex2
									{
										OFFSET -6.426697 0.000000 0.000000
										CHANNELS 3 Xrotation Yrotation Zrotation
										JOINT RightHandIndex3
										{
											OFFSET -5.337898 0.000000 0.000000
											CHANNELS 3 Xrotation Yrotation Zrotation
											JOINT RightHandIndex4
											{
												OFFSET -4.409401 0.000000 0.000000
												CHANNELS 3 Xrotation Yrotation Zrotation
												End Site
												{
													OFFSET 0.000000 4.409363 0.014408
												}
											}
										}
									}
								}
								JOINT RightHandMiddle1
								{
									OFFSET -23.810097 0.000000 0.000000
									CHANNELS 3 Xrotation Yrotation Zrotation
									JOINT RightHandMiddle2
									{
										OFFSET -7.176498 0.000000 0.000000
										CHANNELS 3 Xrotation Yrotation Zrotation
										JOINT RightHandMiddle3
										{
											OFFSET -6.774902 0.000000 0.000000
											CHANNELS 3 Xrotation Yrotation Zrotation
											JOINT RightHandMiddle4
											{
												OFFSET -5.403328 0.000000 0.000000
												CHANNELS 3 Xrotation Yrotation Zrotation
												End Site
												{
													OFFSET 0.027702 5.403244 0.017457
												}
											}
										}
									}
								}
								JOINT RightHandRing1
								{
									OFFSET -22.908302 -0.839325 -6.020576
									CHANNELS 3 Xrotation Yrotation Zrotation
									JOINT RightHandRing2
									{
										OFFSET -6.337502 0.000000 0.000000
										CHANNELS 3 Xrotation Yrotation Zrotation
										JOINT RightHandRing3
										{
											OFFSET -5.779297 0.000000 0.000000
											CHANNELS 3 Xrotation Yrotation Zrotation
											JOINT RightHandRing4
											{
												OFFSET -4.965698 0.000000 0.000000
												CHANNELS 3 Xrotation Yrotation Zrotation
												End Site
												{
													OFFSET 0.000000 4.965668 0.016226
												}
											}
										}
									}
								}
								JOINT RightHandPinky1
								{
									OFFSET -20.037003 -1.530334 -10.950259
									CHANNELS 3 Xrotation Yrotation Zrotation
									JOINT RightHandPinky2
									{
										OFFSET -5.254700 0.000000 0.000000
										CHANNELS 3 Xrotation Yrotation Zrotation
										JOINT RightHandPinky3
										{
											OFFSET -4.810204 0.000000 0.000000
											CHANNELS 3 Xrotation Yrotation Zrotation
											JOINT RightHandPinky4
											{
												OFFSET -3.647202 0.000000 0.000000
												CHANNELS 3 Xrotation Yrotation Zrotation
												End Site
												{
													OFFSET 0.000000 3.647186 0.011917
												}
											}
										}
									}
								}
							}
						}
					}
				}
			}
		}
	}
	JOINT LeftUpLeg
	{
		OFFSET 15.427100 -6.655098 0.678600
		CHANNELS 3 Xrotation Yrotation Zrotation
		JOINT LeftLeg
		{
			OFFSET 4.081073 -39.591068 13.024000
			CHANNELS 3 Xrotation Yrotation Zrotation
			JOINT LeftFoot
			{
				OFFSET -4.081074 -37.707932 -15.979700
				CHANNELS 3 Xrotation Yrotation Zrotation
				JOINT LeftToeBase
				{
					OFFSET 5.346399 -15.068900 20.645000
					CHANNELS 3 Xrotation Yrotation Zrotation
					JOINT LeftToe_End
					{
						OFFSET 2.754700 0.931300 11.300900
						CHANNELS 3 Xrotation Yrotation Zrotation
						End Site
						{
							OFFSET 0.000000 11.669021 0.000000
						}
					}
				}
			}
		}
	}
	JOINT RightUpLeg
	{
		OFFSET -15.569500 -6.655098 0.678600
		CHANNELS 3 Xrotation Yrotation Zrotation
		JOINT RightLeg
		{
			OFFSET -4.081825 -39.591045 13.023800
			CHANNELS 3 Xrotation Yrotation Zrotation
			JOINT RightFoot
			{
				OFFSET 4.081824 -37.707954 -15.979600
				CHANNELS 3 Xrotation Yrotation Zrotation
				JOINT RightToeBase
				{
					OFFSET -5.346400 -15.068900 20.645000
					CHANNELS 3 Xrotation Yrotation Zrotation
					JOINT RightToe_End
					{
						OFFSET -2.754700 0.931300 11.300900
						CHANNELS 3 Xrotation Yrotation Zrotation
						End Site
						{
							OFFSET 0.000000 11.669021 0.000000
						}
					}
				}
			}
		}
	}
}
MOTION
Frames: 4
Frame Time: 0.033333
-22.778580 29.058907 -21.254879 15.835158 -9.262021 9.488638 6.167679 3.582603 0.918457 12.612878 -3.699405 1.765093 12.632419 -3.667526 1.655381 3.019403 1.474814 -1.192187 -42.040774 15.470930 -10.608249 -0.000000 0.000000 0.000000 0.512194 -3.577081 8.499914 -29.794617 -17.266851 -60.810568 -0.000001 -69.573741 -0.000008 -127.274715 2.251412 30.469751 -53.302124 15.099207 -1.059436 22.479964 15.244356 7.730977 -0.579462 1.574997 2.538724 -0.000000 0.000003 -0.000000 2.089788 4.944736 -45.799868 2.089803 4.944745 -45.799854 0.542615 2.683773 -22.856374 -0.000001 -0.000001 0.000001 2.088408 4.943394 -45.783765 2.091187 4.946094 -45.815949 0.542616 2.683762 -22.856371 0.000002 -0.000002 -0.000002 2.089789 4.944737 -45.799871 2.089802 4.944741 -45.799857 0.542611 2.683773 -22.856376 0.000002 -0.000002 0.000001 5.009424 7.776612 -45.613076 2.108170 0.874456 -46.161615 0.542615 2.683768 -22.856379 -0.000000 -0.000003 -0.000002 -0.040987 -1.720614 -3.723459 -46.570323 65.951036 63.045337 -0.020217 88.729615 0.020152 -6.811045 -32.893426 -21.431409 13.264684 20.160753 -28.520549 -10.568144 -41.809073 10.488100 -1.273751 0.137328 -2.094856 0.000002 0.000000 0.000001 1.163088 -3.854956 33.567719 1.248454 -3.980275 34.816886 0.319007 -2.085860 17.389195 -0.000000 0.000001 -0.000000 1.163089 -3.854955 33.567713 1.248451 -3.980279 34.816882 0.319009 -2.085862 17.389187 -0.000001 -0.000006 0.000002 1.163092 -3.854957 33.567719 1.248456 -3.980277 34.816879 0.319008 -2.085861 17.389192 0.000001 0.000000 -0.000000 1.163088 -3.854956 33.567713 1.248452 -3.980282 34.816886 0.319007 -2.085865 17.389192 0.000001 0.000001 0.000000 -108.036743 -32.141986 35.811631 89.537373 -17.592790 -0.606502 9.589916 -10.430843 -35.811252 -0.000042 -0.000002 0.000007 0.000000 0.000000 -0.000000 5.130202 29.293882 -103.033212 88.508036 52.980131 39.795985 0.004894 21.661831 -6.450725 -69.091373 -4.755853 16.805457 0.000001 -0.000000 0.000000 
-22.766504 29.057739 -21.244236 15.844208 -9.273366 9.512838 6.165095 3.585823 0.919170 12.599279 -3.688741 1.746056 12.618588 -3.657024 1.636326 3.012287 1.470189 -1.162640 -42.052952 15.453187 -10.619367 0.000000 -0.000000 0.000000 0.520837 -3.611454 8.547559 -29.794252 -17.263460 -60.838373 -0.000018 -69.537753 -0.000021 -127.209309 2.277332 30.424128 -53.302120 15.099202 -1.059434 22.479964 15.244356 7.730982 -0.579463 1.574995 2.538723 0.000001 0.000000 0.000000 2.089787 4.944736 -45.799868 2.089804 4.944749 -45.799854 0.542611 2.683780 -22.856374 0.000000 0.000002 -0.000001 2.088411 4.943395 -45.783769 2.091189 4.946093 -45.815953 0.542615 2.683760 -22.856371 0.000002 -0.000000 -0.000004 2.089787 4.944736 -45.799868 2.089804 4.944747 -45.799854 0.542611 2.683774 -22.856373 -0.000001 0.000000 0.000003 5.009426 7.776612 -45.613072 2.108172 0.874461 -46.161615 0.542610 2.683768 -22.856378 -0.000002 0.000001 0.000002 -0.040036 -1.733239 -3.665824 -46.471432 65.973275 62.938506 -0.002540 88.728658 0.002551 -6.630342 -32.859477 -21.446101 13.264682 20.160755 -28.520546 -10.568139 -41.809073 10.488100 -1.273754 0.137330 -2.094854 -0.000001 0.000001 -0.000000 1.163092 -3.854957 33.567723 1.248452 -3.980276 34.816886 0.319008 -2.085861 17.389194 0.000000 0.000000 -0.000003 1.163093 -3.854957 33.567716 1.248455 -3.980280 34.816889 0.319009 -2.085870 17.389192 -0.000001 0.000002 0.000000 1.163092 -3.854957 33.567726 1.248451 -3.980274 34.816876 0.319009 -2.085863 17.389194 -0.000002 0.000000 -0.000001 1.163092 -3.854957 33.567716 1.248456 -3.980283 34.816889 0.319009 -2.085860 17.389192 -0.000001 -0.000002 -0.000001 -108.007441 -32.127806 35.839048 89.540706 -17.602927 -0.610106 9.546266 -10.441735 -35.823157 -0.000042 -0.000002 0.000007 0.000000 -0.000000 -0.000000 5.166048 29.316316 -103.110257 88.490292 52.966495 39.826280 0.071250 21.707914 -6.521043 -69.151574 -4.785232 16.819614 0.000000 -0.000001 0.000000 
-22.751642 29.051819 -21.230717 15.855019 -9.286627 9.541821 6.162918 3.591780 0.916422 12.590084 -3.668418 1.716522 12.609038 -3.637164 1.606405 3.000476 1.456721 -1.113530 -42.057467 15.413179 -10.634143 -0.000000 0.000000 0.000000 0.527526 -3.638270 8.668852 -29.810921 -17.258879 -60.920499 0.000035 -69.493514 0.000052 -127.147141 2.265367 30.373851 -53.302120 15.099209 -1.059436 22.479969 15.244357 7.730976 -0.579464 1.574995 2.538724 -0.000001 0.000000 0.000001 2.089786 4.944734 -45.799868 2.089802 4.944746 -45.799854 0.542612 2.683774 -22.856376 0.000000 0.000002 -0.000002 2.088414 4.943393 -45.783765 2.091187 4.946093 -45.815949 0.542615 2.683763 -22.856371 0.000001 0.000000 0.000003 2.089786 4.944734 -45.799868 2.089803 4.944747 -45.799854 0.542611 2.683772 -22.856376 -0.000001 -0.000001 -0.000001 5.009427 7.776610 -45.613076 2.108172 0.874458 -46.161615 0.542612 2.683771 -22.856378 -0.000001 0.000000 -0.000000 -0.040983 -1.776171 -3.603820 -46.389211 66.003697 62.846422 0.001394 88.736137 -0.001303 -6.508874 -32.840922 -21.489268 13.264682 20.160755 -28.520549 -10.568135 -41.809077 10.488097 -1.273759 0.137331 -2.094859 -0.000001 0.000000 -0.000000 1.163094 -3.854959 33.567723 1.248454 -3.980272 34.816886 0.319008 -2.085865 17.389194 -0.000001 0.000002 0.000000 1.163094 -3.854958 33.567726 1.248455 -3.980276 34.816889 0.319009 -2.085865 17.389192 -0.000003 -0.000001 0.000002 1.163094 -3.854959 33.567716 1.248452 -3.980275 34.816879 0.319008 -2.085860 17.389194 0.000001 0.000000 -0.000000 1.163094 -3.854959 33.567726 1.248455 -3.980279 34.816886 0.319006 -2.085860 17.389192 0.000001 -0.000001 -0.000001 -107.977402 -32.112807 35.878352 89.549121 -17.618994 -0.612440 9.489869 -10.466352 -35.838631 -0.000042 -0.000002 0.000007 0.000000 -0.000000 0.000000 5.211290 29.351789 -103.212136 88.476372 52.940171 39.849595 0.178535 21.788749 -6.591997 -69.268008 -4.824554 16.825748 0.000001 0.000001 -0.000000 
-22.732967 29.040657 -21.214235 15.857918 -9.306356 9.563435 6.162067 3.600060 0.912316 12.587044 -3.642826 1.685241 12.605549 -3.612283 1.574209 2.996722 1.439597 -1.048622 -42.050644 15.354752 -10.642696 0.000000 0.000000 0.000000 0.527198 -3.630588 8.867545 -29.853736 -17.265654 -61.069336 -0.000036 -69.439398 -0.000044 -127.085573 2.251721 30.332607 -53.302120 15.099204 -1.059436 22.479963 15.244357 7.730980 -0.579461 1.574994 2.538723 -0.000002 -0.000001 0.000001 2.089787 4.944736 -45.799871 2.089801 4.944748 -45.799854 0.542612 2.683776 -22.856371 -0.000001 0.000000 -0.000002 2.088413 4.943396 -45.783765 2.091188 4.946092 -45.815949 0.542613 2.683763 -22.856374 0.000002 0.000002 -0.000001 2.089787 4.944736 -45.799868 2.089803 4.944747 -45.799854 0.542610 2.683771 -22.856374 0.000001 0.000003 -0.000001 5.009427 7.776612 -45.613072 2.108171 0.874457 -46.161615 0.542613 2.683768 -22.856376 -0.000003 0.000005 -0.000001 -0.045651 -1.855826 -3.605630 -46.427080 65.999681 62.900332 -0.009505 88.733808 0.009555 -6.438861 -32.791059 -21.560593 13.264683 20.160753 -28.520546 -10.568139 -41.809077 10.488100 -1.273752 0.137330 -2.094856 -0.000002 -0.000001 0.000001 1.163095 -3.854959 33.567716 1.248450 -3.980274 34.816882 0.319007 -2.085864 17.389195 -0.000001 -0.000001 -0.000000 1.163096 -3.854958 33.567719 1.248451 -3.980276 34.816886 0.319008 -2.085865 17.389189 -0.000002 -0.000001 -0.000001 1.163095 -3.854958 33.567716 1.248452 -3.980275 34.816882 0.319008 -2.085864 17.389192 -0.000000 -0.000001 0.000000 1.163095 -3.854959 33.567719 1.248452 -3.980280 34.816886 0.319007 -2.085864 17.389190 0.000000 -0.000000 -0.000004 -107.967881 -32.104693 35.906130 89.578211 -17.638648 -0.610479 9.445982 -10.479883 -35.842784 -0.000042 -0.000002 0.000007 -0.000000 -0.000000 -0.000000 5.277777 29.386493 -103.335400 88.455799 52.906638 39.876219 0.298343 21.889877 -6.656842 -69.382175 -4.863630 16.837939 -0.000001 0.000000 0.000000 
